<svg xmlns:dc="http://purl.org/dc/elements/1.1/" xmlns:cc="http://creativecommons.org/ns#" xmlns:rdf="http://www.w3.org/1999/02/22-rdf-syntax-ns#" xmlns:svg="http://www.w3.org/2000/svg" xmlns="http://www.w3.org/2000/svg" viewBox="0 0 20 20" fill="none"><metadata><rdf:RDF><cc:Work><dc:format>image/svg+xml</dc:format><dc:type rdf:resource="http://purl.org/dc/dcmitype/StillImage"/><dc:title>Pixel Art</dc:title><dc:creator><cc:Agent><dc:title>Plastic Jam</dc:title></cc:Agent></dc:creator><cc:license rdf:resource="https://github.com/dicebear/dicebear/blob/main/packages/%40dicebear/pixel-art/LICENSE"/></cc:Work></rdf:RDF></metadata><mask id="avatarsRadiusMask"><rect width="20" height="20" rx="0" ry="0" x="0" y="0" fill="#fff"/></mask><g mask="url(#avatarsRadiusMask)"><rect fill="#05aaac" width="20" height="20" x="0" y="0"/><path d="M6 4V3h8v1h1v1h1v3h1v3h-1v2h-1v1h-1v1h-2v1h4v1h1v3H3v-3h1v-1h4v-1H6v-1H5v-1H4v-2H3V8h1V5h1V4h1Z" fill="rgba(255, 219, 172, 1)"/><path d="M6 3v1H5v1H4v3H3v3h1v2h1v1h1v1h8v-1h1v-1h1v-2h1V8h-1V5h-1V4h-1V3H6Z" fill="#fff" fill-opacity=".1"/><g/><g><g fill-rule="evenodd" clip-rule="evenodd"><path d="M6 8h1v1H6V8Zm7 0h1v1h-1V8Z" fill="#fff"/><path d="M7 8h1v1H7V8Zm5 0h1v1h-1V8Z" fill="#000"/></g></g><g><g fill-rule="evenodd" clip-rule="evenodd"><path d="M6 5h3v2H8V6H6V5Zm5 0h3v1h-2v1h-1V5Z" fill="rgba(97, 38, 22, 1)"/><path d="M6 5h3v2H8V6H6V5Zm5 0h3v1h-2v1h-1V5Z" fill="#000" fill-opacity=".1"/></g></g><g><path d="M9 12v2h2v-2H9Z" fill="rgba(222, 15, 13, 1)"/></g><g><path d="M4 7h1V5h1V4h2v1h1v1h2V5h1V4h2v1h1v2h1V5h-1V4h-1V3H6v1H5v1H4v2Z" fill="rgba(97, 38, 22, 1)"/></g><g/><g/><g/><g><path d="M3 20v-3h1v-1h5v1h2v-1h5v1h1v3H3Z" fill="rgba(255, 196, 37, 1)"/><path fill-rule="evenodd" clip-rule="evenodd" d="M3 20v-2h1v1h3v1H3Zm14 0v-2h-1v1h-3v1h4Z" fill="#fff" fill-opacity=".4"/><path d="M7 16H4v1H3v1h1v1h3v1h6v-1h3v-1h1v-1h-1v-1h-3v1H7v-1Z" fill="#fff" fill-opacity=".2"/></g></g></svg>