<svg xmlns:dc="http://purl.org/dc/elements/1.1/" xmlns:cc="http://creativecommons.org/ns#" xmlns:rdf="http://www.w3.org/1999/02/22-rdf-syntax-ns#" xmlns:svg="http://www.w3.org/2000/svg" xmlns="http://www.w3.org/2000/svg" viewBox="0 0 20 20" fill="none"><metadata><rdf:RDF><cc:Work><dc:format>image/svg+xml</dc:format><dc:type rdf:resource="http://purl.org/dc/dcmitype/StillImage"/><dc:title>Pixel Art</dc:title><dc:creator><cc:Agent><dc:title>Plastic Jam</dc:title></cc:Agent></dc:creator><cc:license rdf:resource="https://github.com/dicebear/dicebear/blob/main/packages/%40dicebear/pixel-art/LICENSE"/></cc:Work></rdf:RDF></metadata><mask id="avatarsRadiusMask"><rect width="20" height="20" rx="0" ry="0" x="0" y="0" fill="#fff"/></mask><g mask="url(#avatarsRadiusMask)"><rect fill="#f86072" width="20" height="20" x="0" y="0"/><path d="M6 4V3h8v1h1v1h1v3h1v3h-1v2h-1v1h-1v1h-2v1h4v1h1v3H3v-3h1v-1h4v-1H6v-1H5v-1H4v-2H3V8h1V5h1V4h1Z" fill="rgba(141, 85, 36, 1)"/><path d="M6 3v1H5v1H4v3H3v3h1v2h1v1h1v1h8v-1h1v-1h1v-2h1V8h-1V5h-1V4h-1V3H6Z" fill="#fff" fill-opacity=".1"/><g/><g><g fill-rule="evenodd" clip-rule="evenodd"><path d="M5 7v1h3V7H5Zm7 0h3v1h-3V7Z" fill="#fff"/><path d="M5 9V8h1V7h1v1h1v1H5Zm7 0V8h1V7h1v1h1v1h-3Z" fill="#000"/><path d="M5 9V8h1V7h1v1h1v1H7V8H6v1H5Zm7 0V8h1V7h1v1h1v1h-1V8h-1v1h-1Z" fill="#fff" fill-opacity=".5"/></g></g><g><g fill-rule="evenodd" clip-rule="evenodd"><path d="M6 5h2v1h1v1H8V6H6V5Zm8 0h-2v1h-1v1h1V6h2V5Z" fill="rgba(96, 48, 21, 1)"/><path d="M6 5h2v1h1v1H8V6H6V5Zm8 0h-2v1h-1v1h1V6h2V5Z" fill="#000" fill-opacity=".1"/></g></g><g><path d="M9 12v1H8v1h4v-1h-1v-1H9Z" fill="rgba(210, 153, 133, 1)"/></g><g><path d="M3 11h1V9h1V8h1V7h1V6h1V5h5v1h3V5h-1V4h-1V3H5v1H4v1H3v6Z" fill="rgba(96, 48, 21, 1)"/></g><g/><g><g fill-rule="evenodd" clip-rule="evenodd"><path opacity=".2" d="M5 7h3v2H5V7Zm7 0h3v2h-3V7Z" fill="#fff"/><path opacity=".2" d="M7 7h1v1H7V7Zm7 0h1v1h-1V7Z" fill="#fff"/><path d="M5 7v2h3V7H5ZM4 6v1H3v1h1v1h1v1h3V9h1V8h2v1h1v1h3V9h1V8h1V7h-1V6h-5v1H9V6H4Zm8 1v2h3V7h-3Z" fill="rgba(95, 112, 92, 1)"/><path d="M3 7h1v1H3V7Zm6 0h2v1H9V7Zm7 0h1v1h-1V7Z" fill="#fff" fill-opacity=".2"/></g></g><g/><g><path d="M3 20v-3h1v-1h4.027L8 15h4l.011 1H16v1h1v3H3Z" fill="rgba(255, 217, 105, 1)"/><path d="M3 20v-3h1v-1h12v1h1v3H3Z" fill="#fff" fill-opacity=".2"/><path d="M12 20v-1h3v1h-3Z" fill="#fff" fill-opacity=".2"/></g></g></svg>